<?xml version="1.0" standalone="no"?>
<!DOCTYPE svg PUBLIC "-//W3C//DTD SVG 20010904//EN"
 "http://www.w3.org/TR/2001/REC-SVG-20010904/DTD/svg10.dtd">
<svg version="1.0" xmlns="http://www.w3.org/2000/svg"
 width="567.000000pt" height="567.000000pt" viewBox="0 0 567.000000 567.000000"
 preserveAspectRatio="xMidYMid meet">
<metadata>
Created by potrace 1.11, written by Peter Selinger 2001-2013
</metadata>
<g transform="translate(0.000000,567.000000) scale(0.100000,-0.100000)"
fill="#000000" stroke="none">
<path d="M0 5343 l0 -328 227 2 c126 1 246 -2 268 -5 34 -6 40 -11 40 -32 0
-25 -1 -25 -125 -34 -168 -11 -283 -12 -352 -2 l-58 9 0 -483 0 -483 98 8
c107 8 154 7 352 -6 191 -13 189 -13 253 -4 89 12 101 2 122 -107 32 -162 8
-373 -56 -500 -14 -28 -12 -141 3 -183 18 -50 12 -122 -13 -154 -11 -13 -19
-36 -19 -52 0 -46 -8 -56 -41 -51 -41 6 -67 59 -61 125 2 26 7 47 12 47 20 0
28 240 12 370 -5 39 -11 55 -22 56 -8 1 -19 2 -25 4 -5 1 -44 3 -85 4 -44 0
-107 10 -152 24 -43 12 -86 22 -96 22 -27 0 -72 23 -72 37 0 22 25 28 155 34
113 5 136 9 175 31 37 20 48 33 67 83 32 81 30 102 -7 110 -38 8 -71 -2 -64
-20 4 -8 -3 -27 -14 -41 l-19 -27 -221 -3 c-130 -2 -224 1 -227 7 -4 5 -17 9
-31 9 -24 0 -24 -1 -24 -97 0 -54 5 -140 12 -190 12 -91 13 -93 39 -93 15 0
29 -4 31 -10 3 -10 122 -30 151 -24 9 1 17 -1 17 -7 0 -5 -9 -9 -20 -9 -11 0
-23 -6 -26 -14 -3 -8 -28 -20 -55 -26 -27 -7 -72 -23 -99 -36 l-50 -24 0 -149
c0 -165 -2 -161 70 -161 21 0 42 -5 46 -11 4 -8 -12 -10 -55 -7 l-61 3 0 -78
c0 -77 0 -78 39 -117 21 -21 50 -42 65 -46 36 -9 126 4 153 22 13 8 49 17 81
20 49 6 67 3 115 -20 70 -32 83 -32 92 -3 6 21 7 21 20 -8 18 -38 19 -95 3
-95 -7 0 -31 7 -53 15 -53 19 -103 18 -140 -1 -20 -11 -75 -19 -160 -25 -72
-5 -149 -12 -172 -15 l-43 -5 0 -107 0 -107 56 -2 c31 -1 61 -6 67 -12 7 -7
16 -7 30 1 22 11 37 -3 37 -35 0 -14 5 -16 25 -11 17 4 25 2 25 -7 0 -8 8 1
18 20 20 41 34 48 54 27 13 -13 19 -12 44 3 18 10 55 18 99 20 38 1 72 7 76
12 11 18 77 22 116 7 21 -9 59 -18 86 -22 26 -4 47 -11 47 -17 0 -5 1 -12 3
-16 1 -5 -10 -8 -24 -8 -46 -1 -77 -29 -76 -70 1 -28 6 -37 23 -41 33 -8 64 4
76 32 16 33 33 30 52 -10 21 -44 61 -76 95 -76 18 0 29 -7 36 -22 7 -16 29
-29 70 -43 l60 -20 5 -74 c3 -40 2 -75 -2 -77 -4 -3 -70 -5 -147 -6 -113 -1
-142 1 -154 14 -9 8 -39 18 -69 22 -29 4 -58 12 -65 18 -7 5 -18 8 -25 6 -7
-3 -19 1 -26 8 -7 7 -19 11 -27 8 -9 -4 -15 0 -15 10 0 9 -6 16 -14 16 -14 0
-29 37 -21 50 8 13 179 22 208 11 22 -9 29 -8 33 4 12 29 -5 64 -34 71 -87 19
-112 40 -112 93 0 48 -10 62 -39 54 -22 -6 -23 -9 -18 -65 4 -50 3 -60 -14
-69 -16 -8 -21 -5 -31 16 -12 26 -48 35 -48 12 0 -39 -111 -49 -170 -15 -34
20 -43 21 -71 11 -20 -8 -38 -9 -49 -3 -10 5 -20 7 -22 4 -3 -2 -6 23 -7 57
-2 65 -6 79 -22 79 -5 0 -9 -36 -9 -81 0 -111 -7 -122 -76 -113 l-54 6 0
-1081 0 -1081 303 0 304 0 22 123 c12 67 26 142 31 167 5 25 16 105 25 178 14
123 22 177 60 412 23 144 55 291 86 390 16 52 29 102 29 112 0 10 5 18 10 18
6 0 10 9 10 19 0 27 92 231 129 286 17 25 31 48 31 51 0 3 11 17 25 32 14 15
25 31 25 37 0 5 14 23 30 39 17 16 30 34 30 40 1 15 28 -48 50 -115 10 -31 31
-80 45 -110 15 -29 38 -82 51 -116 13 -35 36 -81 50 -103 l26 -39 -26 -28
c-34 -36 -126 -221 -137 -276 -27 -126 -32 -190 -33 -373 -1 -148 2 -205 12
-216 8 -10 12 -45 11 -100 -2 -117 18 -142 99 -130 52 7 55 26 57 362 1 192 6
331 14 375 29 161 42 207 66 239 24 32 34 76 17 76 -9 0 -122 230 -162 330
-12 30 -32 80 -45 110 -22 53 -82 239 -86 270 -4 23 11 130 23 170 20 67 56
135 84 159 l27 24 31 -35 c82 -93 121 -144 117 -153 -8 -23 1 -226 14 -300 18
-101 86 -311 140 -429 14 -30 25 -62 25 -70 0 -9 4 -16 8 -16 5 0 16 -16 25
-35 17 -35 17 -35 -16 -72 -17 -20 -45 -50 -61 -67 -16 -17 -29 -32 -28 -33 2
-4 -8 -34 -34 -98 -29 -72 -30 -91 -6 -106 16 -10 18 -18 11 -53 -16 -79 -22
-478 -10 -660 16 -248 21 -286 39 -286 12 0 13 19 6 138 -11 172 -12 764 -1
815 8 37 9 38 49 35 l42 -3 -5 -125 c-7 -219 -2 -542 11 -620 7 -41 14 -112
17 -157 5 -74 7 -83 25 -83 18 0 20 6 17 78 -1 42 -6 85 -11 94 -15 32 -19 81
-25 364 -6 312 1 456 22 448 13 -6 28 29 40 96 8 45 21 81 56 158 16 35 29 67
29 72 0 5 13 18 28 29 16 11 41 38 57 61 16 23 34 39 41 36 7 -3 11 0 8 7 -2
7 10 28 27 47 16 19 44 52 62 74 18 21 37 44 44 51 7 7 36 44 64 81 56 74 77
99 64 74 -5 -9 -4 -12 1 -7 5 5 10 13 10 18 1 5 2 12 3 17 1 4 15 22 31 41 17
18 30 38 30 43 0 5 5 6 10 3 6 -3 10 0 10 9 0 8 5 16 11 18 5 2 11 10 12 19 4
22 43 70 51 61 4 -3 4 0 1 9 -3 8 3 24 13 34 10 11 33 47 51 80 19 33 39 67
46 75 7 8 20 35 29 60 10 25 24 59 31 75 57 130 67 233 50 530 -18 295 -29
393 -57 495 -11 41 -26 98 -32 125 -20 81 -98 245 -160 338 -25 37 -43 67 -41
67 3 0 -18 24 -45 54 -28 29 -62 68 -75 87 -14 18 -25 29 -25 25 0 -4 -13 5
-30 21 -70 67 -207 163 -231 163 -10 0 -19 4 -19 8 0 4 -17 14 -37 21 -21 7
-53 20 -72 28 -51 23 -155 19 -208 -8 -23 -12 -43 -28 -43 -36 0 -7 -6 -13
-14 -13 -22 0 -62 -96 -76 -180 -7 -41 -14 -80 -15 -86 -2 -8 -38 -11 -112
-10 l-108 1 -3 37 c-2 21 2 63 8 95 7 32 13 70 16 84 8 60 85 234 98 222 3 -3
6 0 6 8 1 8 12 28 25 44 24 29 29 30 107 32 102 2 233 21 267 39 14 8 33 14
41 14 8 0 28 11 44 25 16 14 33 25 38 25 5 0 20 10 33 23 39 36 48 42 100 67
28 13 62 32 78 42 15 11 27 17 27 13 0 -3 12 1 28 9 42 24 220 88 287 103 357
81 518 98 865 90 252 -6 412 -21 543 -52 144 -33 247 -47 369 -48 143 -2 146
-4 110 -69 -11 -18 -24 -50 -31 -70 -7 -21 -17 -38 -22 -38 -5 0 -9 -6 -9 -12
0 -7 -14 -28 -30 -47 -17 -18 -30 -38 -30 -42 0 -5 -5 -9 -11 -9 -7 0 -17 -7
-24 -16 -11 -15 -15 -14 -53 7 -47 27 -57 23 -41 -17 7 -16 13 -32 13 -36 1
-4 9 -17 19 -28 9 -11 17 -29 17 -40 0 -11 3 -20 8 -20 4 0 13 -15 20 -32 7
-18 18 -40 23 -48 5 -8 12 -22 16 -30 3 -8 32 -70 65 -138 32 -68 58 -129 58
-137 0 -8 4 -16 9 -19 4 -3 30 -56 57 -118 26 -62 51 -115 54 -118 3 -3 22
-57 42 -120 47 -146 68 -338 68 -610 0 -316 -40 -537 -124 -684 -28 -49 -39
-100 -27 -124 5 -9 16 -33 25 -52 8 -19 31 -53 51 -75 20 -22 43 -53 52 -68
23 -44 82 -187 77 -187 -3 0 2 -12 10 -27 34 -67 195 -578 216 -688 5 -22 17
-83 28 -135 44 -209 43 -205 71 -596 6 -72 15 -187 22 -257 l13 -127 373 0
373 0 0 1955 c0 1764 -2 1955 -16 1955 -34 0 -212 -22 -260 -32 -48 -10 -52
-9 -77 16 -15 15 -27 31 -27 36 0 5 -8 11 -18 14 -9 3 -23 15 -30 26 -11 19
-10 20 32 20 25 0 47 -4 50 -9 3 -5 61 -9 128 -10 68 -1 144 -4 171 -8 l47 -6
0 118 0 117 -37 -7 c-58 -12 -118 -14 -132 -5 -7 4 -11 16 -9 26 4 22 70 37
136 31 l42 -5 0 208 0 208 -35 6 c-19 4 -35 11 -35 17 0 6 -4 8 -9 5 -11 -7
-23 68 -15 98 4 19 0 27 -16 36 -28 15 -39 5 -51 -50 -8 -34 -7 -46 6 -60 21
-23 19 -49 -2 -45 -10 2 -23 4 -29 4 -35 3 -19 205 17 214 9 3 21 1 26 -3 4
-5 25 -13 46 -18 31 -9 39 -8 44 4 3 8 11 13 17 11 8 -3 11 5 8 24 -3 23 -14
33 -58 54 -67 32 -224 46 -265 25 -47 -26 -239 -60 -338 -60 l-73 0 7 28 c3
15 16 36 29 47 66 60 119 67 449 63 l277 -3 0 313 0 312 -152 -1 c-84 -1 -145
-3 -135 -6 9 -2 17 -14 17 -25 0 -17 -2 -18 -15 -8 -13 10 -15 9 -15 -11 0
-18 10 -29 39 -43 33 -16 46 -17 90 -7 73 16 112 -5 56 -31 -19 -8 -45 -8
-108 2 -100 15 -123 12 -120 -18 2 -15 -2 -20 -11 -16 -8 3 -25 -2 -39 -11
-23 -15 -25 -15 -31 7 -3 13 -6 56 -6 96 l0 72 -225 0 -226 0 -25 -25 c-14
-14 -30 -39 -36 -55 -5 -17 -14 -30 -19 -30 -5 0 -9 -9 -9 -19 0 -17 -4 -18
-28 -12 -28 9 -72 -2 -72 -17 0 -5 -37 -17 -82 -26 -46 -10 -94 -22 -108 -27
-14 -5 -50 -9 -80 -8 -30 0 -68 1 -85 0 -21 0 -36 8 -51 26 -11 14 -26 23 -32
19 -6 -3 -13 -2 -16 3 -10 15 -108 21 -191 12 -44 -6 -106 -13 -137 -17 -32
-4 -58 -11 -58 -15 0 -5 -18 -12 -40 -15 -22 -4 -40 -12 -40 -19 0 -7 -7 -15
-15 -19 -8 -3 -15 -17 -15 -32 0 -25 -2 -25 -40 -19 -32 5 -41 3 -46 -9 -3 -9
-16 -16 -28 -16 -11 0 -30 -7 -40 -15 -22 -17 -52 -20 -60 -6 -3 5 10 25 29
45 19 21 35 43 35 49 1 7 15 21 33 33 18 11 31 28 31 37 -1 9 4 17 12 17 7 0
17 6 21 13 4 8 32 27 62 43 l54 29 221 -4 c419 -9 679 -6 721 7 52 16 61 22
69 50 l7 22 -404 0 c-223 0 -407 -4 -409 -8 -3 -8 -289 -54 -296 -48 -11 11
58 36 119 44 54 7 -38 10 -347 11 l-421 1 -6 -107 c-10 -156 -9 -293 3 -293 6
0 6 -9 -1 -23 -17 -36 -85 -48 -349 -58 -238 -9 -512 -10 -475 -1 11 2 23 10
27 17 5 8 26 11 60 9 29 -1 103 -5 163 -8 108 -6 500 16 513 29 4 3 1 10 -7
14 -9 6 -8 9 7 13 15 4 20 18 25 68 10 94 8 178 -4 186 -13 8 -234 6 -303 -3
-47 -6 -48 -5 -37 16 11 19 20 21 94 21 132 0 169 17 181 83 l7 38 -63 -3
c-55 -3 -64 -6 -75 -28 -7 -14 -13 -18 -13 -10 0 10 -8 6 -25 -13 -37 -39 -63
-37 -33 3 12 17 25 30 30 30 4 0 8 5 8 10 0 7 -360 10 -1060 10 l-1060 0 -1
-77 c0 -43 -4 -87 -9 -98 -5 -11 -9 -15 -9 -8 -1 6 -27 14 -61 18 -50 6 -60
10 -60 26 0 10 9 24 20 31 11 7 20 17 20 21 0 5 7 15 15 23 8 9 15 26 15 40
l0 24 -255 0 -255 0 0 -327z m3615 307 c-3 -5 -12 -10 -20 -10 -8 0 -17 5 -20
10 -4 6 5 10 20 10 15 0 24 -4 20 -10z m372 4 c-3 -3 -12 -4 -19 -1 -8 3 -5 6
6 6 11 1 17 -2 13 -5z m1093 -106 c0 -31 -3 -38 -20 -38 -22 0 -26 28 -14 90
l7 32 13 -23 c7 -13 13 -41 14 -61z m-3090 53 c52 -3 111 -3 131 1 42 9 121
-3 126 -18 2 -5 -3 -18 -10 -28 -12 -17 -29 -19 -128 -20 -63 -1 -119 -5 -126
-9 -7 -4 -50 -3 -97 3 -47 6 -118 11 -158 11 -68 0 -128 13 -128 28 0 11 15
28 30 34 20 7 240 6 360 -2z m2733 -128 c5 -40 -6 -60 -53 -93 -25 -18 -27
-18 -49 -1 -19 15 -22 23 -16 49 6 30 9 32 48 30 39 -3 42 -1 45 25 5 39 19
33 25 -10z m277 -19 c0 -21 -5 -24 -37 -24 -47 0 -83 9 -83 21 0 5 8 9 18 9 9
1 28 7 41 14 33 18 61 9 61 -20z m303 -61 c6 -58 10 -71 34 -90 16 -13 34 -23
41 -23 6 0 12 -4 12 -10 0 -5 -4 -10 -10 -10 -17 0 -60 23 -60 32 0 5 -9 21
-19 36 -11 15 -21 43 -22 62 -6 102 15 105 24 3z m-39 -145 c-7 -23 13 -27
156 -30 160 -4 137 -21 -32 -24 -159 -3 -163 -1 -152 72 6 45 7 46 20 23 7
-13 11 -32 8 -41z m-749 7 c39 -10 46 -15 31 -20 -18 -8 -205 0 -284 11 -36 6
-40 9 -30 21 10 13 32 14 123 8 60 -4 133 -13 160 -20z m-345 5 c0 -5 -12 -10
-27 -10 -22 0 -25 2 -13 10 20 13 40 13 40 0z m-3390 -32 c0 -4 14 -8 32 -8
41 0 25 -18 -19 -22 -30 -2 -63 15 -63 33 0 5 11 8 25 7 14 -1 25 -6 25 -10z
m260 -29 c0 -10 -80 -12 -106 -2 -16 6 -16 7 -1 12 24 9 107 1 107 -10z m3017
-134 c16 -8 36 -15 45 -15 9 0 19 -4 22 -8 11 -19 176 -35 288 -29 62 4 188
10 280 13 150 6 168 5 174 -10 3 -9 3 -24 -2 -33 -4 -10 -7 -21 -6 -24 2 -8
-156 -86 -183 -91 -15 -3 -19 -10 -17 -28 4 -30 -17 -130 -31 -147 -14 -19 9
-41 39 -37 34 3 39 10 27 36 -6 14 -6 37 -1 58 5 19 9 41 10 48 1 6 5 12 10
12 4 0 8 6 8 14 0 14 42 26 91 26 16 0 29 -4 29 -10 0 -5 7 -10 15 -10 12 0
14 -7 9 -27 -8 -34 -32 -63 -61 -74 -45 -17 -15 -66 35 -56 35 7 94 -5 99 -20
7 -20 -55 -44 -154 -59 -149 -22 -150 -22 -218 42 -32 31 -60 64 -62 74 -1 9
9 30 22 46 14 16 25 35 25 42 0 7 4 11 9 7 13 -7 24 31 17 60 -8 30 -42 36
-198 36 -120 -1 -121 0 -148 28 -30 31 -100 48 -215 53 -50 3 -60 0 -63 -14
-2 -11 3 -18 13 -18 9 0 13 -4 10 -10 -3 -5 1 -10 9 -10 9 0 16 -4 16 -10 0
-15 -46 -12 -126 6 -71 17 -87 31 -95 84 -3 22 12 51 23 44 6 -4 13 -1 17 5
20 31 182 35 238 6z m-2677 -31 c60 -6 63 -7 40 -19 -14 -7 -49 -15 -78 -18
-29 -3 -71 -16 -92 -28 -38 -22 -43 -22 -103 -9 -127 27 -276 16 -379 -30 -39
-17 -108 -15 -108 4 1 22 41 58 97 87 l58 30 250 -6 c138 -3 279 -8 315 -11z
m117 -100 c12 -58 11 -152 -2 -173 -12 -20 -35 -12 -35 12 0 13 -9 68 -21 122
-21 105 -18 121 25 106 16 -6 24 -23 33 -67z m1488 59 c-272 -16 -584 -79
-793 -159 -35 -13 -68 -22 -73 -18 -6 3 -16 -2 -24 -12 -11 -15 -15 -16 -28
-5 -19 15 -37 7 -37 -17 0 -24 -59 -47 -67 -26 -10 27 -51 13 -107 -39 -16
-15 -22 -25 -13 -21 9 3 17 2 17 -4 0 -5 -7 -12 -15 -16 -8 -3 -15 -11 -15
-18 0 -19 -89 -70 -144 -82 l-29 -7 5 103 c4 78 10 111 25 136 31 51 89 109
137 137 53 31 80 33 521 44 291 8 741 10 640 4z m1525 -184 c0 -11 -7 -22 -15
-25 -10 -4 -13 -14 -9 -30 7 -27 -10 -33 -20 -8 -16 40 3 97 29 88 8 -4 15
-15 15 -25z m765 -79 c3 -5 16 -10 28 -10 12 0 50 -15 85 -32 57 -30 62 -35
57 -58 -4 -14 -15 -33 -26 -43 -23 -21 -24 -36 -4 -43 8 -4 15 -14 15 -23 0
-15 74 -57 92 -53 11 3 20 -36 13 -58 -6 -18 -8 -18 -21 -5 -9 8 -22 15 -30
15 -8 0 -14 10 -14 24 0 27 -8 35 -41 41 -30 6 -69 33 -69 48 0 6 7 34 15 61
l15 48 -33 31 c-45 42 -110 48 -178 17 -27 -13 -49 -27 -49 -32 0 -4 -5 -8
-11 -8 -6 0 -17 -6 -24 -12 -8 -7 -30 -24 -49 -38 -20 -14 -36 -28 -36 -32 0
-5 20 -8 45 -8 56 0 175 -29 175 -42 0 -6 -9 -7 -22 -3 -46 15 -162 17 -254 5
-53 -6 -99 -9 -102 -5 -13 13 32 35 69 35 21 0 44 6 51 13 7 6 31 25 53 42 38
28 63 48 89 70 24 20 56 35 76 35 11 0 23 7 26 15 7 17 49 20 59 5z m27 -240
c29 -17 30 -20 11 -20 -12 0 -25 5 -28 10 -3 6 -15 10 -26 10 -10 0 -19 5 -19
10 0 16 27 12 62 -10z m-3344 -330 c23 -17 42 -28 42 -25 0 8 134 -106 170
-144 98 -104 215 -284 269 -414 82 -199 110 -352 132 -711 18 -308 5 -411 -73
-586 -45 -99 -191 -324 -303 -466 -22 -29 -60 -78 -85 -110 -25 -32 -63 -79
-85 -104 -22 -25 -56 -66 -75 -90 -74 -94 -113 -130 -149 -139 -97 -25 -95
-25 -115 16 -86 177 -155 366 -195 536 -22 92 -29 271 -12 281 5 3 21 -10 35
-29 15 -19 31 -35 37 -35 19 0 8 26 -28 66 -200 215 -327 376 -467 588 -71
107 -149 269 -171 351 -36 139 -6 398 63 546 40 85 104 163 160 197 46 26 53
27 247 33 263 9 286 17 336 110 37 68 68 99 134 133 65 33 83 32 133 -4z
m-828 -205 c0 -8 -17 -22 -37 -32 -21 -9 -44 -25 -51 -35 -16 -23 -32 -15 -27
13 10 53 15 58 63 62 26 2 48 4 50 5 1 1 2 -5 2 -13z m-686 -465 c5 -5 8 -10
6 -11 -26 -5 -110 -9 -110 -6 0 27 15 35 53 31 22 -2 45 -8 51 -14z m-130 -56
c9 -3 16 -15 16 -26 0 -14 -5 -18 -16 -14 -9 3 -21 6 -27 6 -21 0 -40 17 -33
29 8 12 35 14 60 5z m210 -673 c-2 -3 -12 3 -22 13 -16 17 -16 18 5 5 12 -7
20 -15 17 -18z m220 13 c10 -4 16 -18 16 -41 0 -19 4 -32 9 -29 5 3 12 -17 15
-45 12 -87 77 -165 131 -155 38 7 105 -8 116 -26 15 -23 10 -27 -26 -17 -25 7
-53 7 -91 -1 -57 -12 -114 -1 -114 22 0 5 -9 21 -20 35 -11 14 -20 36 -20 48
0 12 -6 28 -14 34 -15 12 -41 155 -31 171 7 12 8 12 29 4z m-119 -44 c18 -35
19 -53 3 -48 -14 5 -40 78 -28 78 5 0 16 -13 25 -30z m428 -7 c-2 -7 1 -13 6
-13 5 0 19 -13 30 -29 l20 -28 -37 3 c-20 2 -73 6 -117 9 -101 8 -112 12 -96
28 34 34 200 60 194 30z m97 -138 c7 -9 8 -15 2 -15 -5 0 -12 7 -16 15 -3 8
-4 15 -2 15 2 0 9 -7 16 -15z m-170 -794 c0 -4 -10 -21 -21 -35 -17 -21 -24
-25 -30 -14 -11 17 -192 24 -245 9 -48 -14 -281 -26 -318 -17 -58 14 -10 26
108 26 84 0 126 4 134 13 18 18 372 35 372 18z m-742 -43 c3 -33 0 -38 -18
-38 -13 0 -24 -10 -31 -27 -16 -40 -17 -242 -2 -251 9 -6 9 -17 -2 -47 -8 -22
-14 -32 -15 -22 0 10 -4 15 -10 12 -5 -3 -12 7 -15 22 -4 15 -15 56 -26 91
-15 50 -17 71 -9 105 5 23 10 61 10 84 0 55 17 90 49 102 48 18 66 10 69 -31z
m649 -100 c-3 -8 -6 -5 -6 6 -1 11 2 17 5 13 3 -3 4 -12 1 -19z m-26 -61 c-10
-9 -11 -8 -5 6 3 10 9 15 12 12 3 -3 0 -11 -7 -18z m-61 -181 c0 -14 -4 -28
-10 -31 -5 -3 -10 -17 -10 -30 0 -39 -11 -55 -36 -55 -13 0 -24 -4 -24 -10 0
-5 -14 -10 -31 -10 -31 0 -31 0 -15 23 9 12 19 29 23 37 4 8 15 24 25 35 10
11 21 30 24 42 9 34 54 32 54 -1z m-180 -41 c0 -8 -4 -15 -10 -15 -5 0 -7 7
-4 15 4 8 8 15 10 15 2 0 4 -7 4 -15z m1146 -91 c-19 -39 -62 -167 -82 -241
-4 -15 -121 -18 -142 -4 -11 7 -8 23 14 85 21 62 39 90 88 143 50 53 69 67
101 72 22 4 41 4 43 0 1 -3 -8 -28 -22 -55z m-1196 29 c-85 -38 -134 -50 -128
-32 5 16 94 47 133 48 l30 0 -35 -16z m70 -42 c0 -11 -26 -22 -34 -14 -12 12
-5 23 14 23 11 0 20 -4 20 -9z m-110 -61 c0 -5 -7 -10 -16 -10 -8 0 -12 5 -9
10 3 6 10 10 16 10 5 0 9 -4 9 -10z m168 -202 c-5 -13 -38 -20 -38 -8 0 8 17
18 33 19 5 1 7 -4 5 -11z m-88 -563 c0 -8 -5 -15 -11 -15 -10 0 -38 -12 -167
-71 -75 -34 -72 -34 -72 -11 0 17 55 52 80 52 6 0 38 13 73 30 69 33 97 37 97
15z m-316 -155 c-12 -12 -134 -37 -158 -32 -18 4 -18 5 5 23 18 14 41 19 93
19 45 0 67 -3 60 -10z"/>
<path d="M4757 4803 c-16 -15 -6 -33 18 -33 18 0 25 5 25 20 0 20 -28 28 -43
13z"/>
<path d="M1870 4889 c0 -18 4 -20 23 -14 12 4 34 9 50 12 45 9 31 23 -23 23
-44 0 -50 -2 -50 -21z"/>
<path d="M1198 3836 c-137 -37 -188 -133 -96 -183 49 -27 305 -26 366 1 68 31
68 87 -1 137 -75 55 -173 71 -269 45z"/>
<path d="M1323 2857 c-26 -6 -43 -16 -43 -24 0 -8 5 -11 10 -8 6 4 50 10 97
13 55 5 88 12 91 20 5 15 -91 15 -155 -1z"/>
<path d="M162 1700 c0 -19 2 -27 5 -17 2 9 2 25 0 35 -3 9 -5 1 -5 -18z"/>
<path d="M5626 4785 c-19 -19 -19 -25 -7 -58 5 -13 19 -27 31 -30 20 -5 21 -2
18 46 -3 54 -16 67 -42 42z"/>
<path d="M3394 4528 c-5 -4 -19 -16 -32 -28 -12 -11 -27 -18 -31 -15 -5 3 -8
-3 -6 -12 2 -10 6 -37 8 -60 5 -40 4 -43 -29 -53 -19 -7 -34 -18 -34 -27 0
-11 -3 -13 -13 -5 -10 8 -12 0 -10 -41 1 -29 3 -53 4 -54 2 -3 6 -20 8 -31 1
-9 82 -52 98 -52 6 0 14 -16 17 -35 8 -42 30 -55 89 -55 36 0 51 6 78 31 25
23 34 27 41 17 23 -34 28 -49 22 -60 -4 -6 -3 -8 3 -5 14 9 30 -12 35 -43 1
-14 5 -27 8 -30 3 -3 14 -18 24 -33 16 -27 18 -28 31 -11 11 16 10 25 -11 65
-12 26 -20 50 -16 54 4 5 3 6 -3 3 -5 -3 -22 18 -38 48 l-27 54 39 0 c33 0 44
6 68 35 23 28 28 42 25 74 -2 22 -13 49 -23 60 -20 21 -25 46 -11 55 19 11
-13 123 -37 130 -47 15 -90 14 -108 -3 -17 -17 -19 -17 -46 5 -16 13 -36 25
-45 25 -56 5 -69 4 -78 -3z m168 -165 c25 -29 30 -60 14 -91 -28 -55 -101 -69
-135 -26 -46 59 -8 134 67 134 25 0 45 -6 54 -17z"/>
<path d="M1400 4419 c0 -5 5 -7 10 -4 6 3 10 8 10 11 0 2 -4 4 -10 4 -5 0 -10
-5 -10 -11z"/>
<path d="M3766 4097 c3 -10 9 -15 12 -12 3 3 0 11 -7 18 -10 9 -11 8 -5 -6z"/>
<path d="M3606 4021 c-4 -5 -2 -12 3 -15 5 -4 12 -2 15 3 4 5 2 12 -3 15 -5 4
-12 2 -15 -3z"/>
<path d="M382 2325 c-25 -21 -30 -32 -27 -57 5 -37 8 -40 39 -43 19 -3 28 4
41 31 19 41 16 88 -6 92 -9 2 -30 -9 -47 -23z"/>
<path d="M17 2329 c-23 -13 -25 -124 -2 -132 17 -7 30 9 16 18 -15 9 -3 31 25
43 26 13 33 49 12 70 -14 14 -27 15 -51 1z"/>
<path d="M888 2153 c7 -3 16 -2 19 1 4 3 -2 6 -13 5 -11 0 -14 -3 -6 -6z"/>
<path d="M2683 2148 c-4 -7 -10 -38 -14 -68 -6 -50 -15 -77 -66 -190 -21 -45
-113 -183 -130 -193 -7 -4 -13 -14 -13 -20 0 -7 -8 -20 -17 -28 -33 -29 -63
-69 -63 -83 0 -7 6 -18 13 -24 15 -13 72 42 133 130 20 29 41 55 46 56 4 2 8
10 8 18 0 8 6 17 14 20 8 3 18 19 21 35 4 16 10 29 13 29 8 0 45 69 63 115 14
39 19 66 26 148 4 56 3 67 -10 67 -9 0 -19 -6 -24 -12z"/>
<path d="M2021 1332 c-37 -19 -39 -21 -71 -102 -41 -107 -52 -212 -48 -484 2
-206 6 -256 18 -276 13 -21 14 -35 5 -90 -19 -113 7 -155 90 -141 36 6 40 10
52 51 11 36 11 61 2 124 -24 160 1 561 46 736 25 100 21 161 -14 187 -22 17
-40 16 -80 -5z"/>
<path d="M3224 1251 c-24 -19 -46 -82 -69 -191 -16 -76 -28 -319 -40 -802 l-7
-258 26 0 c24 0 26 3 26 48 0 155 22 767 30 872 11 131 41 250 72 286 23 26
23 41 0 53 -12 6 -23 4 -38 -8z"/>
<path d="M4575 808 c-2 -7 -6 -137 -8 -288 -2 -151 -5 -279 -7 -285 -1 -5 -2
-61 -1 -122 1 -112 1 -113 25 -113 l24 0 7 312 c9 412 6 502 -18 506 -9 2 -19
-2 -22 -10z"/>
</g>
</svg>
